<?xml version="1.0" encoding="UTF-8"?>
<svg xmlns="http://www.w3.org/2000/svg" xmlns:xlink="http://www.w3.org/1999/xlink" width="200px" height="65px" viewBox="0 100 200 65" version="1.1">
<g id="surface1">
<path style=" stroke:none;fill-rule:nonzero;fill: #273c75;fill-opacity:1;" d="M 81.335938 106.785156 C 78.382812 107.121094 78.117188 107.171875 77.660156 107.71875 C 77.433594 108 76.625 109.246094 75.867188 110.53125 C 74.726562 112.429688 74.390625 112.851562 74.058594 112.851562 C 73.757812 112.851562 73.582031 112.691406 73.40625 112.234375 L 73.144531 111.621094 L 71.421875 111.621094 C 69.328125 111.621094 68.90625 111.8125 68.90625 112.816406 C 68.90625 113.976562 69.207031 114.1875 71.015625 114.328125 C 71.878906 114.398438 72.597656 114.519531 72.597656 114.574219 C 72.582031 114.855469 72.28125 115.082031 71.507812 115.382812 C 70.488281 115.75 69.1875 116.894531 68.679688 117.84375 C 68.308594 118.527344 68.292969 118.738281 68.292969 123.484375 C 68.292969 126.191406 68.363281 128.707031 68.433594 129.058594 C 68.503906 129.425781 68.765625 129.953125 69.011719 130.234375 L 69.433594 130.746094 L 68.960938 130.851562 C 68.679688 130.902344 67.871094 130.992188 67.148438 131.0625 C 65.566406 131.203125 63.984375 131.589844 63.652344 131.90625 C 61.683594 133.875 88.015625 135 106.875 133.75 C 112.359375 133.398438 115.3125 132.855469 115.3125 132.1875 C 115.3125 131.710938 114.046875 131.378906 110.867188 131.042969 C 109.917969 130.9375 109.863281 130.902344 110.09375 130.640625 C 110.953125 129.65625 111.007812 129.355469 111.058594 124.417969 C 111.113281 120.375 111.078125 119.582031 110.832031 118.828125 C 110.460938 117.703125 109.265625 116.417969 107.773438 115.523438 C 107.140625 115.152344 106.613281 114.765625 106.578125 114.660156 C 106.542969 114.554688 107 114.433594 107.683594 114.378906 C 109.25 114.222656 109.6875 113.921875 109.6875 113.027344 C 109.6875 112.078125 109.285156 111.847656 107.28125 111.691406 L 105.664062 111.566406 L 105.347656 112.21875 C 105.101562 112.726562 104.960938 112.851562 104.625 112.816406 C 104.292969 112.78125 103.886719 112.253906 102.710938 110.390625 C 101.902344 109.089844 101.058594 107.839844 100.828125 107.613281 C 100.054688 106.820312 98.386719 106.664062 90.527344 106.609375 C 85.429688 106.558594 82.8125 106.609375 81.335938 106.785156 Z M 96.242188 107.753906 C 97.59375 107.839844 98.914062 107.964844 99.175781 108.035156 C 99.546875 108.105469 99.878906 108.507812 100.757812 110.003906 C 101.375 111.023438 102.023438 112.128906 102.21875 112.429688 C 102.410156 112.746094 102.535156 113.027344 102.480469 113.078125 C 102.429688 113.113281 101.636719 113.097656 100.722656 113.042969 C 99.195312 112.9375 99.054688 112.902344 99 112.570312 C 98.949219 112.21875 98.332031 111.796875 97.875 111.796875 C 97.753906 111.796875 97.417969 111.566406 97.121094 111.285156 C 96.453125 110.652344 95.660156 110.390625 94.464844 110.390625 C 93.65625 110.390625 93.5 110.460938 93.09375 110.933594 C 92.777344 111.304688 92.636719 111.671875 92.636719 112.164062 L 92.636719 112.851562 L 88.296875 112.816406 L 83.9375 112.761719 L 83.566406 111.636719 C 83.179688 110.40625 82.96875 110.25 81.828125 110.230469 C 80.84375 110.214844 79.839844 110.53125 79.628906 110.917969 C 79.542969 111.09375 79.453125 111.636719 79.453125 112.128906 C 79.453125 112.605469 79.382812 113.042969 79.3125 113.097656 C 79.226562 113.148438 78.433594 113.238281 77.539062 113.308594 L 75.921875 113.429688 L 76.097656 112.992188 C 76.183594 112.746094 76.570312 112.042969 76.957031 111.410156 C 77.34375 110.777344 77.871094 109.808594 78.136719 109.265625 C 78.398438 108.703125 78.714844 108.210938 78.855469 108.15625 C 80.175781 107.664062 91.179688 107.402344 96.242188 107.753906 Z M 95.976562 113.554688 C 98.050781 113.660156 100.425781 113.816406 101.25 113.921875 C 102.867188 114.117188 104.519531 114.519531 104.660156 114.765625 C 104.714844 114.855469 104.222656 115.242188 103.570312 115.609375 C 101.566406 116.789062 101.585938 116.789062 98.753906 116.472656 C 92.671875 115.785156 87.925781 115.785156 81.371094 116.453125 C 78.46875 116.753906 78.628906 116.769531 75.886719 115.503906 C 75.042969 115.101562 74.390625 114.714844 74.445312 114.625 C 74.621094 114.328125 76.324219 114.097656 80.597656 113.816406 C 87.785156 113.34375 90.5625 113.308594 95.976562 113.554688 Z M 108.054688 117.035156 C 108.828125 117.527344 108.773438 119.828125 107.984375 120.128906 C 107.386719 120.355469 103.675781 120.585938 102.992188 120.425781 C 101.707031 120.128906 101.726562 120.109375 104.152344 118.773438 C 107.808594 116.769531 107.71875 116.824219 108.054688 117.035156 Z M 75.410156 118.476562 C 76.816406 119.25 78.066406 119.882812 78.1875 119.882812 C 78.292969 119.882812 78.398438 119.953125 78.398438 120.039062 C 78.398438 120.355469 76.324219 120.636719 74.9375 120.496094 C 73.019531 120.339844 72.265625 120.144531 71.984375 119.757812 C 71.597656 119.25 71.332031 117.808594 71.542969 117.402344 C 71.894531 116.769531 72.703125 116.980469 75.410156 118.476562 Z M 91.933594 120.214844 C 91.933594 120.425781 90.5625 122.167969 90.386719 122.167969 C 90.246094 122.167969 89.035156 120.9375 88.613281 120.355469 C 88.382812 120.074219 88.488281 120.058594 90.160156 120.058594 C 91.125 120.058594 91.933594 120.128906 91.933594 120.214844 Z M 97.207031 126.121094 L 97.207031 127.617188 L 84.550781 127.617188 L 84.550781 124.628906 L 97.207031 124.628906 Z M 75.851562 126.121094 C 79.226562 126.4375 79.3125 126.457031 79.171875 126.808594 C 78.804688 127.792969 75.128906 127.617188 72.96875 126.507812 C 72.089844 126.050781 71.773438 125.613281 72.457031 125.753906 C 72.667969 125.804688 74.214844 125.980469 75.851562 126.121094 Z M 108.792969 125.964844 C 108.28125 126.578125 105.417969 127.441406 103.921875 127.441406 C 103.148438 127.441406 102.269531 126.878906 102.570312 126.597656 C 102.675781 126.507812 103.816406 126.332031 105.117188 126.210938 C 107.050781 126.050781 108.476562 125.859375 108.96875 125.699219 C 109.003906 125.699219 108.914062 125.804688 108.792969 125.964844 Z M 99.949219 129.707031 C 102.023438 129.832031 102.9375 129.9375 103.34375 130.164062 C 103.660156 130.324219 103.886719 130.464844 103.851562 130.480469 C 103.835938 130.5 97.71875 130.480469 90.265625 130.429688 C 78.574219 130.359375 76.800781 130.304688 77.257812 130.09375 C 77.554688 129.972656 78.503906 129.796875 79.367188 129.726562 C 81.632812 129.550781 96.59375 129.53125 99.949219 129.707031 Z M 99.949219 129.707031 "/>
<path style=" stroke:none;fill-rule:nonzero;fill: #273c75;fill-opacity:1;" d="M 88.824219 108.15625 C 88.734375 108.28125 88.367188 108.367188 87.996094 108.367188 C 87.3125 108.367188 87.3125 108.367188 87.3125 109.070312 L 87.3125 109.773438 L 89.613281 109.828125 L 91.933594 109.878906 L 91.933594 109.246094 C 91.933594 108.738281 91.863281 108.632812 91.566406 108.632812 C 91.355469 108.632812 91.089844 108.527344 90.984375 108.386719 C 90.722656 108.070312 89 107.875 88.824219 108.15625 Z M 88.824219 108.15625 "/>
<path style=" stroke:none;fill-rule:nonzero;fill: #273c75;fill-opacity:1;" d="M 101.65625 134.839844 C 101.023438 135.015625 100.195312 135.914062 100.195312 136.421875 C 100.195312 136.738281 100.054688 136.757812 98.105469 136.757812 L 96.011719 136.757812 L 95.730469 137.496094 C 95.589844 137.917969 95.117188 139.480469 94.695312 140.976562 L 93.921875 143.699219 L 93.621094 142.996094 C 93.464844 142.609375 92.917969 141.328125 92.410156 140.132812 L 91.496094 137.96875 L 89.683594 138.023438 L 87.855469 138.074219 L 86.785156 140.746094 C 86.1875 142.222656 85.660156 143.4375 85.605469 143.4375 C 85.554688 143.4375 85.167969 142.1875 84.746094 140.660156 C 84.324219 139.148438 83.882812 137.636719 83.742188 137.320312 L 83.515625 136.757812 L 81.230469 136.757812 C 79.964844 136.757812 78.925781 136.773438 78.925781 136.808594 C 78.925781 137.144531 83.109375 149.078125 83.285156 149.273438 C 83.355469 149.34375 84.199219 149.414062 85.167969 149.429688 L 86.925781 149.464844 L 87.925781 147.285156 C 88.488281 146.089844 89.105469 144.71875 89.316406 144.246094 L 89.683594 143.367188 L 90.089844 144.332031 C 90.300781 144.84375 90.914062 146.214844 91.460938 147.339844 L 92.445312 149.414062 L 96.117188 149.414062 L 96.945312 147.074219 C 97.402344 145.808594 98.351562 143.066406 99.070312 140.992188 C 100.320312 137.390625 100.546875 136.792969 100.546875 137.265625 C 100.546875 137.566406 101.917969 138.164062 102.640625 138.164062 C 104.554688 138.164062 105.785156 136.949219 105.101562 135.667969 C 104.679688 134.875 102.957031 134.472656 101.65625 134.839844 Z M 101.65625 134.839844 "/>
<path style=" stroke:none;fill-rule:nonzero;fill: #273c75;fill-opacity:1;" d="M 147.65625 138.234375 L 147.65625 140.394531 L 146.917969 140.027344 C 144.582031 138.882812 141.328125 139.957031 140.152344 142.257812 C 138.851562 144.84375 139.816406 147.9375 142.296875 149.167969 C 143.632812 149.816406 145.511719 149.816406 146.777344 149.203125 C 147.585938 148.796875 147.65625 148.78125 147.65625 149.097656 C 147.65625 149.378906 147.832031 149.414062 149.765625 149.414062 L 151.875 149.414062 L 151.875 136.054688 L 147.65625 136.054688 Z M 147.199219 143.101562 C 147.621094 143.4375 147.65625 143.558594 147.65625 144.753906 C 147.65625 145.96875 147.621094 146.089844 147.199219 146.355469 C 146.621094 146.742188 145.355469 146.742188 144.757812 146.355469 C 144.140625 145.949219 143.738281 144.949219 143.878906 144.210938 C 144.125 142.890625 146.09375 142.222656 147.199219 143.101562 Z M 147.199219 143.101562 "/>
<path style=" stroke:none;fill-rule:nonzero;fill: #273c75;fill-opacity:1;" d="M 31.253906 137.933594 C 30.957031 138.585938 29.671875 141.449219 28.390625 144.261719 L 26.050781 149.414062 L 30.199219 149.414062 L 30.515625 148.621094 L 30.816406 147.832031 L 35.949219 147.832031 L 36.265625 148.621094 L 36.597656 149.414062 L 38.691406 149.414062 C 39.832031 149.414062 40.78125 149.378906 40.78125 149.324219 C 40.78125 149.238281 38.074219 143.136719 36.265625 139.128906 L 35.226562 136.84375 L 33.503906 136.792969 L 31.800781 136.738281 Z M 34.121094 143.4375 L 34.753906 145.019531 L 32.027344 145.019531 L 32.625 143.628906 C 32.960938 142.875 33.222656 142.152344 33.222656 142.046875 C 33.222656 141.503906 33.558594 142.011719 34.121094 143.4375 Z M 34.121094 143.4375 "/>
<path style=" stroke:none;fill-rule:nonzero;fill: #273c75;fill-opacity:1;" d="M 54.492188 138.53125 L 54.492188 139.957031 L 53.085938 139.816406 L 53.085938 142.558594 L 54.492188 142.558594 L 54.492188 149.414062 L 58.625 149.414062 L 58.570312 145.984375 L 58.519531 142.558594 L 60.820312 142.558594 L 60.820312 139.746094 L 58.535156 139.746094 L 58.535156 137.109375 L 54.492188 137.109375 Z M 54.492188 138.53125 "/>
<path style=" stroke:none;fill-rule:nonzero;fill: #273c75;fill-opacity:1;" d="M 40.765625 139.640625 C 40.730469 139.675781 40.730469 141.414062 40.78125 143.472656 L 40.871094 147.25 L 41.363281 147.988281 C 42.046875 149.007812 43.066406 149.449219 44.738281 149.449219 C 46.160156 149.449219 47.074219 149.113281 47.636719 148.394531 L 47.988281 147.953125 L 47.988281 149.414062 L 52.03125 149.414062 L 52.03125 139.65625 L 47.988281 139.65625 L 47.988281 142.257812 C 47.988281 145.035156 47.8125 145.878906 47.144531 146.230469 C 46.601562 146.511719 45.96875 146.460938 45.511719 146.089844 C 45.105469 145.757812 45.089844 145.652344 45 142.699219 L 44.914062 139.65625 L 42.875 139.605469 C 41.765625 139.585938 40.816406 139.585938 40.765625 139.640625 Z M 40.765625 139.640625 "/>
<path style=" stroke:none;fill-rule:nonzero;fill: #273c75;fill-opacity:1;" d="M 65.164062 139.746094 C 64.355469 139.957031 63 140.660156 62.386719 141.1875 C 61.066406 142.328125 60.523438 144.261719 60.996094 145.984375 C 61.875 149.132812 66.832031 150.660156 70.417969 148.886719 C 74.480469 146.882812 74.128906 141.75 69.804688 140.078125 C 68.695312 139.640625 66.269531 139.480469 65.164062 139.746094 Z M 68.1875 142.980469 C 68.765625 143.277344 69.082031 143.929688 69.082031 144.773438 C 69.082031 145.265625 68.941406 145.546875 68.484375 146.003906 C 67.976562 146.511719 67.765625 146.601562 67.0625 146.601562 C 65.460938 146.601562 64.53125 144.984375 65.339844 143.613281 C 65.496094 143.332031 65.796875 143.03125 65.988281 142.925781 C 66.535156 142.679688 67.625 142.699219 68.1875 142.980469 Z M 68.1875 142.980469 "/>
<path style=" stroke:none;fill-rule:nonzero;fill: #273c75;fill-opacity:1;" d="M 120.339844 139.921875 C 119.320312 140.324219 118.25 141.308594 117.738281 142.292969 C 117.210938 143.296875 117.125 145.070312 117.511719 146.265625 C 117.914062 147.480469 119.320312 148.886719 120.515625 149.308594 C 122.082031 149.835938 124.3125 149.605469 124.964844 148.832031 C 125.296875 148.410156 125.507812 148.464844 125.507812 148.972656 L 125.507812 149.414062 L 129.550781 149.414062 L 129.550781 139.746094 L 128.285156 139.746094 C 127.582031 139.746094 126.703125 139.691406 126.335938 139.621094 C 125.753906 139.535156 125.648438 139.570312 125.5625 139.886719 C 125.472656 140.253906 125.457031 140.253906 124.910156 139.972656 C 124.050781 139.5 121.429688 139.480469 120.339844 139.921875 Z M 124.875 143.101562 C 125.296875 143.4375 125.332031 143.558594 125.332031 144.753906 C 125.332031 145.96875 125.296875 146.089844 124.875 146.355469 C 124.242188 146.777344 122.976562 146.742188 122.378906 146.300781 C 121.378906 145.5625 121.324219 143.859375 122.292969 143.085938 C 122.90625 142.59375 124.242188 142.609375 124.875 143.101562 Z M 124.875 143.101562 "/>
<path style=" stroke:none;fill-rule:nonzero;fill: #273c75;fill-opacity:1;" d="M 137.320312 139.902344 C 136.917969 140.097656 136.390625 140.464844 136.144531 140.730469 L 135.703125 141.203125 L 135.703125 139.746094 L 131.484375 139.746094 L 131.484375 149.414062 L 135.703125 149.414062 L 135.703125 144.632812 L 136.214844 144.121094 C 136.652344 143.699219 136.882812 143.613281 137.585938 143.613281 C 138.058594 143.613281 138.535156 143.699219 138.65625 143.824219 C 138.816406 143.980469 138.886719 143.945312 138.972656 143.683594 C 139.042969 143.507812 139.394531 142.558594 139.765625 141.609375 C 140.132812 140.640625 140.414062 139.816406 140.363281 139.78125 C 140.328125 139.746094 139.800781 139.675781 139.183594 139.621094 C 138.324219 139.570312 137.902344 139.640625 137.320312 139.902344 Z M 137.320312 139.902344 "/>
<path style=" stroke:none;fill-rule:nonzero;fill: #273c75;fill-opacity:1;" d="M 100.722656 144.578125 L 100.722656 149.414062 L 104.925781 149.414062 L 104.835938 144.613281 L 104.75 139.832031 L 102.746094 139.78125 L 100.722656 139.726562 Z M 100.722656 144.578125 "/>
<path style=" stroke:none;fill-rule:nonzero;fill: #273c75;fill-opacity:1;" d="M 106.523438 141.152344 L 106.523438 142.539062 L 108.914062 142.59375 L 111.324219 142.644531 L 108.738281 144.929688 L 106.171875 147.214844 L 106.171875 149.414062 L 116.71875 149.414062 L 116.71875 146.601562 L 111.621094 146.601562 L 112.800781 145.476562 C 113.46875 144.859375 114.609375 143.824219 115.367188 143.171875 L 116.71875 141.976562 L 116.71875 139.746094 L 106.523438 139.746094 Z M 106.523438 141.152344 "/>
<path style=" stroke:none;fill-rule:nonzero;fill: #273c75;fill-opacity:1;" d="M 33.101562 153.457031 C 32.890625 153.542969 32.625 153.773438 32.519531 153.984375 C 32.238281 154.492188 32.976562 155.214844 33.785156 155.214844 C 34.894531 155.214844 35.597656 154.210938 34.910156 153.648438 C 34.558594 153.367188 33.574219 153.246094 33.101562 153.457031 Z M 33.101562 153.457031 "/>
<path style=" stroke:none;fill-rule:nonzero;fill: #273c75;fill-opacity:1;" d="M 41.660156 153.492188 C 40.675781 154.019531 41.222656 155.214844 42.453125 155.214844 C 43.507812 155.214844 44.191406 154.195312 43.523438 153.648438 C 43.136719 153.316406 42.152344 153.246094 41.660156 153.492188 Z M 41.660156 153.492188 "/>
<path style=" stroke:none;fill-rule:nonzero;fill: #273c75;fill-opacity:1;" d="M 62.578125 153.402344 C 62.15625 153.5625 61.699219 154.019531 61.699219 154.28125 C 61.699219 154.40625 61.859375 154.667969 62.050781 154.863281 C 62.71875 155.53125 64.511719 155.160156 64.511719 154.335938 C 64.511719 153.667969 63.371094 153.105469 62.578125 153.402344 Z M 62.578125 153.402344 "/>
<path style=" stroke:none;fill-rule:nonzero;fill: #273c75;fill-opacity:1;" d="M 152.472656 153.683594 C 151.910156 154.175781 152 154.703125 152.683594 155.003906 C 153.757812 155.496094 155.023438 154.984375 154.8125 154.125 C 154.601562 153.28125 153.246094 153.015625 152.472656 153.683594 Z M 152.472656 153.683594 "/>
<path style=" stroke:none;fill-rule:nonzero;fill: #273c75;fill-opacity:1;" d="M 131.484375 157.585938 L 131.484375 161.382812 L 132.59375 161.332031 L 133.683594 161.277344 L 133.769531 159.519531 L 133.859375 157.761719 L 134.351562 157.710938 C 135.210938 157.605469 135.351562 157.902344 135.351562 159.679688 L 135.351562 161.277344 L 136.460938 161.261719 L 137.550781 161.261719 L 137.601562 159.398438 C 137.621094 158.378906 137.566406 157.339844 137.480469 157.09375 C 137.074219 156.039062 135.421875 155.601562 134.351562 156.269531 L 133.769531 156.621094 L 133.769531 153.808594 L 131.484375 153.808594 Z M 131.484375 157.585938 "/>
<path style=" stroke:none;fill-rule:nonzero;fill: #273c75;fill-opacity:1;" d="M 9.316406 157.796875 L 9.316406 161.367188 L 11.777344 161.367188 L 11.777344 160.3125 C 11.777344 159.378906 11.8125 159.257812 12.128906 159.257812 C 13.203125 159.257812 14.363281 158.835938 14.996094 158.203125 C 15.574219 157.621094 15.644531 157.445312 15.644531 156.671875 C 15.644531 155.742188 15.277344 155.074219 14.539062 154.652344 C 14.308594 154.511719 13.167969 154.386719 11.726562 154.335938 L 9.316406 154.246094 Z M 13.148438 156.199219 C 13.359375 156.339844 13.535156 156.566406 13.535156 156.707031 C 13.535156 157.078125 12.816406 157.5 12.183594 157.5 C 11.621094 157.5 11.601562 157.480469 11.601562 156.707031 C 11.601562 155.933594 11.621094 155.917969 12.183594 155.917969 C 12.5 155.917969 12.9375 156.039062 13.148438 156.199219 Z M 13.148438 156.199219 "/>
<path style=" stroke:none;fill-rule:nonzero;fill: #273c75;fill-opacity:1;" d="M 19.003906 156.375 C 18.476562 156.8125 18.457031 156.8125 18.457031 156.460938 C 18.457031 156.128906 18.351562 156.09375 17.226562 156.09375 L 15.980469 156.09375 L 16.066406 156.566406 C 16.101562 156.847656 16.15625 158.027344 16.15625 159.203125 L 16.171875 161.367188 L 18.457031 161.367188 L 18.457031 159.996094 C 18.457031 158.378906 18.757812 157.902344 19.671875 158.078125 C 20.164062 158.183594 20.199219 158.148438 20.496094 157.269531 C 20.65625 156.761719 20.832031 156.25 20.882812 156.128906 C 21.042969 155.6875 19.582031 155.882812 19.003906 156.375 Z M 19.003906 156.375 "/>
<path style=" stroke:none;fill-rule:nonzero;fill: #273c75;fill-opacity:1;" d="M 22.625 156.164062 C 21.761719 156.480469 21.289062 156.917969 20.988281 157.621094 C 20.410156 158.976562 20.9375 160.277344 22.324219 160.960938 C 23.117188 161.382812 24.207031 161.472656 25.542969 161.261719 C 26.226562 161.136719 26.316406 160.960938 26 160.242188 C 25.804688 159.820312 25.734375 159.800781 24.699219 159.90625 C 23.644531 159.996094 22.851562 159.800781 22.851562 159.433594 C 22.851562 159.328125 23.660156 159.257812 24.785156 159.257812 C 26.296875 159.257812 26.71875 159.308594 26.71875 159.503906 C 26.71875 159.925781 27.457031 160.699219 28.195312 161.03125 C 29.339844 161.558594 31.253906 161.402344 31.976562 160.75 C 32.167969 160.558594 32.152344 160.398438 31.800781 159.800781 C 31.359375 158.992188 31.34375 158.992188 30.867188 159.34375 C 30.394531 159.714844 29.480469 159.679688 29.128906 159.292969 C 28.214844 158.289062 29.742188 157.148438 30.902344 157.957031 C 31.132812 158.113281 31.324219 158.203125 31.359375 158.183594 C 31.835938 157.535156 32.167969 156.972656 32.167969 156.8125 C 32.167969 156.25 30.007812 155.777344 28.863281 156.09375 C 28.054688 156.304688 26.984375 157.148438 26.808594 157.691406 C 26.703125 158.007812 26.648438 157.957031 26.351562 157.375 C 26.175781 157.007812 25.789062 156.550781 25.488281 156.390625 C 24.769531 155.96875 23.449219 155.863281 22.625 156.164062 Z M 24.574219 157.535156 C 25.03125 157.992188 24.804688 158.203125 23.820312 158.203125 C 23.097656 158.203125 22.851562 158.132812 22.851562 157.9375 C 22.851562 157.410156 24.136719 157.09375 24.574219 157.535156 Z M 24.574219 157.535156 "/>
<path style=" stroke:none;fill-rule:nonzero;fill: #273c75;fill-opacity:1;" d="M 36.96875 156.109375 C 36.265625 156.320312 35.683594 157.042969 35.683594 157.710938 C 35.683594 158.429688 36.351562 159.027344 37.601562 159.363281 C 38.691406 159.679688 38.882812 159.835938 38.390625 160.03125 C 38.074219 160.152344 37.371094 160.011719 36.703125 159.660156 C 36.230469 159.433594 36.195312 159.449219 35.859375 159.996094 C 35.667969 160.3125 35.507812 160.628906 35.507812 160.679688 C 35.507812 160.980469 37.019531 161.367188 38.164062 161.367188 C 39.992188 161.367188 40.78125 160.855469 40.78125 159.644531 C 40.78125 158.941406 40.007812 158.289062 38.742188 157.921875 C 38.214844 157.78125 37.828125 157.570312 37.882812 157.480469 C 38.039062 157.234375 38.8125 157.289062 39.394531 157.605469 C 39.691406 157.746094 39.957031 157.851562 39.992188 157.816406 C 40.203125 157.550781 40.605469 156.585938 40.535156 156.460938 C 40.253906 156.023438 38.039062 155.792969 36.96875 156.109375 Z M 36.96875 156.109375 "/>
<path style=" stroke:none;fill-rule:nonzero;fill: #273c75;fill-opacity:1;" d="M 46.144531 156.179688 C 45.757812 156.320312 45.175781 156.726562 44.878906 157.078125 C 43.769531 158.324219 44.210938 160.257812 45.773438 160.996094 C 47.707031 161.945312 50.398438 160.980469 50.785156 159.222656 C 51.277344 156.953125 48.710938 155.285156 46.144531 156.179688 Z M 48.375 157.972656 C 49.042969 158.570312 48.5 159.785156 47.550781 159.785156 C 47.039062 159.785156 46.40625 159.222656 46.40625 158.765625 C 46.40625 158.589844 46.53125 158.273438 46.6875 158.0625 C 47.003906 157.585938 47.902344 157.535156 48.375 157.972656 Z M 48.375 157.972656 "/>
<path style=" stroke:none;fill-rule:nonzero;fill: #273c75;fill-opacity:1;" d="M 54.757812 156.039062 C 54.5625 156.09375 54.230469 156.285156 54.019531 156.496094 L 53.613281 156.847656 L 53.613281 156.480469 C 53.613281 156.128906 53.527344 156.09375 52.558594 156.09375 L 51.503906 156.09375 L 51.503906 161.382812 L 52.613281 161.332031 L 53.703125 161.277344 L 53.667969 159.890625 C 53.648438 159.117188 53.703125 158.324219 53.789062 158.113281 C 53.984375 157.621094 54.546875 157.464844 55.003906 157.796875 C 55.335938 158.027344 55.371094 158.21875 55.371094 159.714844 L 55.371094 161.402344 L 56.480469 161.332031 L 57.570312 161.277344 L 57.621094 159.414062 C 57.640625 158.394531 57.585938 157.339844 57.5 157.09375 C 57.164062 156.214844 55.953125 155.757812 54.757812 156.039062 Z M 54.757812 156.039062 "/>
<path style=" stroke:none;fill-rule:nonzero;fill: #273c75;fill-opacity:1;" d="M 68.117188 156.25 C 67.289062 156.691406 67.308594 156.691406 67.429688 156.355469 C 67.519531 156.144531 67.34375 156.09375 66.375 156.09375 L 65.214844 156.09375 L 65.214844 161.15625 L 66.289062 161.226562 C 66.867188 161.242188 67.394531 161.242188 67.429688 161.207031 C 67.464844 161.171875 67.5 160.398438 67.5 159.484375 C 67.5 157.9375 67.519531 157.832031 67.90625 157.691406 C 68.328125 157.535156 68.75 157.621094 68.941406 157.921875 C 69.011719 158.027344 69.082031 158.851562 69.082031 159.765625 C 69.082031 161.191406 69.117188 161.382812 69.363281 161.296875 C 69.523438 161.242188 70.03125 161.191406 70.523438 161.191406 L 71.402344 161.191406 L 71.332031 159.082031 C 71.28125 157.078125 71.261719 156.953125 70.824219 156.515625 C 70.171875 155.882812 69.066406 155.777344 68.117188 156.25 Z M 68.117188 156.25 "/>
<path style=" stroke:none;fill-rule:nonzero;fill: #273c75;fill-opacity:1;" d="M 77.117188 156.164062 C 76.253906 156.480469 75.78125 156.917969 75.480469 157.621094 C 74.902344 158.976562 75.429688 160.257812 76.816406 160.980469 C 77.503906 161.332031 77.800781 161.382812 79.066406 161.3125 C 79.859375 161.277344 80.597656 161.171875 80.667969 161.085938 C 80.773438 160.996094 80.738281 160.699219 80.597656 160.382812 C 80.367188 159.820312 80.367188 159.820312 79.242188 159.90625 C 78.292969 159.996094 78.066406 159.941406 77.695312 159.625 L 77.257812 159.273438 L 79.242188 159.257812 L 81.210938 159.257812 L 81.210938 158.589844 C 81.210938 157.746094 80.703125 156.796875 80.015625 156.390625 C 79.296875 155.96875 77.941406 155.847656 77.117188 156.164062 Z M 79.15625 157.640625 C 79.558594 158.078125 79.382812 158.203125 78.277344 158.203125 C 77.308594 158.203125 77.152344 158.0625 77.625 157.605469 C 77.996094 157.21875 78.804688 157.253906 79.15625 157.640625 Z M 79.15625 157.640625 "/>
<path style=" stroke:none;fill-rule:nonzero;fill: #273c75;fill-opacity:1;" d="M 89.351562 156.109375 C 88.050781 156.496094 87.171875 157.957031 87.453125 159.238281 C 87.769531 160.714844 89.210938 161.472656 91.425781 161.3125 C 92.199219 161.261719 92.882812 161.191406 92.917969 161.136719 C 92.953125 161.101562 92.882812 160.785156 92.726562 160.453125 L 92.480469 159.820312 L 91.371094 159.90625 C 90.421875 159.996094 90.195312 159.941406 89.824219 159.625 L 89.386719 159.273438 L 91.476562 159.257812 L 93.570312 159.257812 L 93.445312 158.519531 C 93.199219 156.972656 92.304688 156.144531 90.757812 156.003906 C 90.300781 155.96875 89.648438 156.003906 89.351562 156.109375 Z M 91.265625 157.621094 C 91.777344 158.078125 91.636719 158.203125 90.527344 158.203125 C 89.949219 158.203125 89.472656 158.148438 89.472656 158.078125 C 89.472656 158.027344 89.597656 157.816406 89.773438 157.640625 C 90.125 157.253906 90.84375 157.234375 91.265625 157.621094 Z M 91.265625 157.621094 "/>
<path style=" stroke:none;fill-rule:nonzero;fill: #273c75;fill-opacity:1;" d="M 97.207031 156.109375 C 96.980469 156.199219 96.628906 156.410156 96.46875 156.566406 C 96.171875 156.832031 96.152344 156.832031 96.152344 156.480469 C 96.152344 156.128906 96.066406 156.09375 95.011719 156.09375 L 93.867188 156.09375 L 93.867188 161.367188 L 96.152344 161.367188 L 96.152344 160.082031 C 96.152344 158.378906 96.433594 157.957031 97.488281 158.078125 C 98.210938 158.148438 98.246094 158.132812 98.351562 157.65625 C 98.421875 157.375 98.542969 157.113281 98.632812 157.058594 C 98.71875 157.007812 99.195312 157.78125 99.703125 158.800781 L 100.617188 160.644531 L 100.074219 161.980469 L 99.511719 163.300781 L 101.882812 163.300781 L 103.429688 159.925781 C 104.292969 158.0625 105.011719 156.445312 105.066406 156.320312 C 105.136719 156.144531 104.871094 156.09375 104.027344 156.09375 L 102.886719 156.09375 L 102.375 157.269531 L 101.882812 158.464844 L 101.355469 157.269531 L 100.828125 156.09375 L 99.863281 156.09375 C 99.316406 156.09375 98.597656 156.058594 98.261719 156.003906 C 97.929688 155.953125 97.453125 156.003906 97.207031 156.109375 Z M 97.207031 156.109375 "/>
<path style=" stroke:none;fill-rule:nonzero;fill: #273c75;fill-opacity:1;" d="M 111.972656 156.039062 C 111.832031 156.09375 111.535156 156.304688 111.324219 156.496094 L 110.917969 156.847656 L 110.917969 156.480469 C 110.917969 156.128906 110.832031 156.09375 109.777344 156.09375 L 108.632812 156.09375 L 108.632812 161.367188 L 110.917969 161.367188 L 110.917969 159.820312 C 110.917969 158.273438 111.058594 157.816406 111.621094 157.640625 C 111.761719 157.585938 112.027344 157.621094 112.203125 157.710938 C 112.449219 157.832031 112.5 158.132812 112.5 159.609375 L 112.5 161.367188 L 114.785156 161.367188 L 114.785156 159.730469 C 114.785156 158.007812 114.910156 157.675781 115.578125 157.675781 C 116.226562 157.675781 116.367188 158.007812 116.367188 159.679688 L 116.367188 161.277344 L 117.511719 161.277344 L 118.652344 161.296875 L 118.652344 159.574219 C 118.652344 156.988281 118.160156 156.109375 116.597656 155.96875 C 115.894531 155.898438 115.628906 155.96875 115.066406 156.355469 L 114.382812 156.8125 L 113.996094 156.445312 C 113.589844 156.058594 112.464844 155.828125 111.972656 156.039062 Z M 111.972656 156.039062 "/>
<path style=" stroke:none;fill-rule:nonzero;fill: #273c75;fill-opacity:1;" d="M 120.761719 156.304688 C 119.761719 156.8125 119.179688 157.675781 119.179688 158.640625 C 119.179688 159.609375 119.761719 160.453125 120.761719 160.980469 C 121.464844 161.347656 121.730469 161.382812 123.011719 161.3125 C 123.820312 161.261719 124.523438 161.191406 124.578125 161.136719 C 124.628906 161.085938 124.578125 160.75 124.453125 160.417969 L 124.261719 159.785156 L 123.207031 159.90625 C 122.1875 160.011719 121.289062 159.765625 121.289062 159.398438 C 121.289062 159.328125 122.167969 159.257812 123.222656 159.257812 L 125.15625 159.257812 L 125.15625 158.640625 C 125.15625 157.796875 124.613281 156.777344 123.945312 156.390625 C 123.03125 155.863281 121.695312 155.8125 120.761719 156.304688 Z M 123.011719 157.535156 C 123.46875 157.992188 123.242188 158.203125 122.257812 158.203125 C 121.535156 158.203125 121.289062 158.132812 121.289062 157.9375 C 121.289062 157.410156 122.574219 157.09375 123.011719 157.535156 Z M 123.011719 157.535156 "/>
<path style=" stroke:none;fill-rule:nonzero;fill: #273c75;fill-opacity:1;" d="M 127.40625 156.164062 C 126 156.671875 125.332031 157.515625 125.332031 158.78125 C 125.332031 160.136719 126.878906 161.367188 128.585938 161.367188 C 129.359375 161.367188 130.957031 160.839844 130.957031 160.59375 C 130.957031 160.523438 130.308594 159.328125 130.148438 159.097656 C 130.113281 159.082031 129.921875 159.167969 129.691406 159.328125 C 129.21875 159.660156 128.320312 159.695312 127.898438 159.378906 C 127.707031 159.238281 127.582031 158.921875 127.582031 158.640625 C 127.582031 157.746094 128.53125 157.410156 129.535156 157.9375 C 130.027344 158.183594 130.042969 158.183594 130.519531 157.480469 C 130.765625 157.078125 130.957031 156.742188 130.921875 156.707031 C 130.203125 156.074219 128.375 155.792969 127.40625 156.164062 Z M 127.40625 156.164062 "/>
<path style=" stroke:none;fill-rule:nonzero;fill: #273c75;fill-opacity:1;" d="M 139.921875 156.109375 C 137.761719 157.007812 137.550781 160.046875 139.570312 161.050781 C 140.328125 161.4375 141.46875 161.453125 141.996094 161.085938 C 142.347656 160.839844 142.382812 160.839844 142.382812 161.085938 C 142.382812 161.3125 142.59375 161.367188 143.4375 161.367188 L 144.492188 161.367188 L 144.492188 156.074219 L 143.226562 156.074219 C 142.523438 156.09375 141.59375 156.058594 141.152344 156.003906 C 140.714844 155.96875 140.167969 156.003906 139.921875 156.109375 Z M 142.101562 157.78125 C 142.296875 157.851562 142.382812 158.113281 142.382812 158.660156 C 142.382812 159.328125 142.3125 159.46875 141.945312 159.644531 C 140.890625 160.117188 139.90625 159.0625 140.519531 158.132812 C 140.800781 157.675781 141.453125 157.535156 142.101562 157.78125 Z M 142.101562 157.78125 "/>
<path style=" stroke:none;fill-rule:nonzero;fill: #273c75;fill-opacity:1;" d="M 148.324219 156.339844 C 147.691406 156.761719 147.65625 156.761719 147.65625 156.445312 C 147.65625 156.128906 147.535156 156.09375 146.515625 156.09375 L 145.355469 156.09375 L 145.40625 158.675781 L 145.460938 161.277344 L 146.566406 161.332031 L 147.65625 161.382812 L 147.65625 159.785156 C 147.65625 158.429688 147.710938 158.148438 148.007812 157.851562 C 148.414062 157.445312 148.535156 157.429688 148.941406 157.710938 C 149.167969 157.886719 149.238281 158.289062 149.273438 159.609375 L 149.328125 161.277344 L 150.433594 161.332031 L 151.523438 161.382812 L 151.523438 159.273438 C 151.523438 157.199219 151.507812 157.148438 151.03125 156.601562 C 150.328125 155.828125 149.222656 155.707031 148.324219 156.339844 Z M 148.324219 156.339844 "/>
<path style=" stroke:none;fill-rule:nonzero;fill: #273c75;fill-opacity:1;" d="M 156.324219 156.25 C 155.058594 156.832031 154.847656 157.832031 155.8125 158.695312 C 156.148438 158.992188 156.726562 159.273438 157.097656 159.328125 C 157.464844 159.398438 157.886719 159.519531 158.027344 159.609375 C 158.257812 159.765625 158.257812 159.800781 158.027344 159.941406 C 157.730469 160.152344 156.851562 160.011719 156.324219 159.679688 C 156.113281 159.539062 155.902344 159.433594 155.847656 159.433594 C 155.777344 159.433594 155.039062 160.628906 155.039062 160.75 C 155.039062 160.785156 155.445312 160.945312 155.9375 161.101562 C 156.550781 161.3125 157.21875 161.382812 158.152344 161.332031 C 159.382812 161.277344 159.503906 161.226562 159.980469 160.699219 C 160.261719 160.382812 160.488281 159.925781 160.488281 159.679688 C 160.488281 159.011719 159.644531 158.273438 158.484375 157.9375 C 157.941406 157.78125 157.5 157.570312 157.5 157.480469 C 157.5 157.234375 158.308594 157.289062 158.976562 157.570312 C 159.558594 157.816406 159.558594 157.816406 159.945312 157.128906 L 160.332031 156.460938 L 159.417969 156.179688 C 158.203125 155.828125 157.21875 155.847656 156.324219 156.25 Z M 156.324219 156.25 "/>
<path style=" stroke:none;fill-rule:nonzero;fill: #273c75;fill-opacity:1;" d="M 164.179688 156.039062 C 164.039062 156.09375 163.742188 156.304688 163.53125 156.496094 L 163.125 156.847656 L 163.125 156.480469 C 163.125 156.128906 163.039062 156.09375 161.984375 156.09375 L 160.839844 156.09375 L 160.839844 161.15625 L 161.984375 161.226562 L 163.125 161.277344 L 163.125 159.660156 C 163.125 158.132812 163.144531 158.027344 163.546875 157.761719 C 163.882812 157.535156 164.058594 157.515625 164.339844 157.675781 C 164.671875 157.851562 164.707031 158.027344 164.707031 159.609375 L 164.707031 161.367188 L 166.992188 161.367188 L 166.992188 159.730469 C 166.992188 158.007812 167.117188 157.675781 167.785156 157.675781 C 168.433594 157.675781 168.574219 158.007812 168.574219 159.625 L 168.574219 161.15625 L 169.71875 161.226562 L 170.859375 161.277344 L 170.859375 159.34375 C 170.859375 157.746094 170.808594 157.324219 170.507812 156.847656 C 169.910156 155.847656 168.136719 155.636719 167.097656 156.460938 C 166.675781 156.796875 166.625 156.796875 166.34375 156.53125 C 165.816406 156.003906 164.867188 155.792969 164.179688 156.039062 Z M 164.179688 156.039062 "/>
<path style=" stroke:none;fill-rule:nonzero;fill: #273c75;fill-opacity:1;" d="M 32.695312 158.675781 L 32.695312 161.191406 L 34.980469 161.191406 L 34.980469 156.09375 L 33.839844 156.144531 L 32.695312 156.179688 Z M 32.695312 158.675781 "/>
<path style=" stroke:none;fill-rule:nonzero;fill: #273c75;fill-opacity:1;" d="M 81.441406 157.621094 C 81.863281 158.464844 82.441406 159.660156 82.722656 160.257812 L 83.234375 161.367188 L 85.359375 161.367188 L 85.851562 160.347656 C 86.132812 159.800781 86.695312 158.605469 87.117188 157.710938 L 87.875 156.09375 L 85.324219 156.09375 L 84.992188 157.007812 C 84.289062 159.011719 84.394531 158.957031 83.847656 157.5 L 83.375 156.179688 L 82.019531 156.128906 L 80.667969 156.074219 Z M 81.441406 157.621094 "/>
<path style=" stroke:none;fill-rule:nonzero;fill: #273c75;fill-opacity:1;" d="M 152.402344 158.730469 L 152.402344 161.277344 L 153.492188 161.261719 L 154.601562 161.226562 L 154.601562 156.234375 L 153.492188 156.199219 L 152.402344 156.179688 Z M 152.402344 158.730469 "/>
<path style=" stroke:none;fill-rule:nonzero;fill: #273c75;fill-opacity:1;" d="M 41.308594 158.730469 L 41.308594 161.191406 L 43.59375 161.191406 L 43.59375 156.269531 L 41.308594 156.269531 Z M 41.308594 158.730469 "/>
<path style=" stroke:none;fill-rule:nonzero;fill: #273c75;fill-opacity:1;" d="M 62.050781 158.835938 C 62.050781 161.101562 62.085938 161.382812 62.332031 161.296875 C 62.492188 161.242188 63 161.191406 63.476562 161.191406 L 64.335938 161.191406 L 64.335938 156.269531 L 62.050781 156.269531 Z M 62.050781 158.835938 "/>
</g>
</svg>
